<?xml version="1.0" encoding="utf-8"?>
<!-- Generator: Adobe Illustrator 24.3.0, SVG Export Plug-In . SVG Version: 6.00 Build 0)  -->
<svg version="1.1" id="Layer_1" xmlns="http://www.w3.org/2000/svg" xmlns:xlink="http://www.w3.org/1999/xlink" x="0px" y="0px"
	 width="145.5px" height="42.167px" viewBox="0 0 145.5 42.167" style="enable-background:new 0 0 145.5 42.167;"
	 xml:space="preserve">
<style type="text/css">
	.st0{fill:#003057;}
</style>
<g>
	<g>
		<path class="st0" d="M50.834,12.625c-0.171-0.52-0.537-0.887-1.117-0.887c-0.785,0-1.263,0.734-1.263,2.175
			c-0.017,1.442,0.41,2.176,1.297,2.176c0.529,0,0.853-0.188,1.203-0.913l1.092,0.29c-0.367,1.066-1.169,1.612-2.295,1.612
			c-1.57,0-2.474-1.152-2.474-3.166c0-2.014,0.904-3.165,2.474-3.165c1.178,0,1.86,0.529,2.15,1.621L50.834,12.625z"/>
		<path class="st0" d="M55.239,16.993l-0.068-0.384c-0.427,0.29-0.828,0.47-1.382,0.47c-0.802,0-1.203-0.572-1.203-1.178
			c0-1.007,0.819-1.536,2.543-1.74v-0.376c0-0.341-0.273-0.529-0.648-0.529c-0.495,0-0.768,0.265-0.973,0.546l-0.683-0.521
			c0.273-0.47,1.007-0.828,1.655-0.811c1.195,0.026,1.706,0.461,1.706,1.792v2.09c0,0.222,0.017,0.444,0.085,0.64H55.239z
			 M55.128,14.869c-0.708,0.136-1.485,0.281-1.485,0.904c0,0.333,0.213,0.52,0.512,0.52c0.333,0,0.751-0.281,0.973-0.47V14.869z"/>
		<path class="st0" d="M57.289,16.993v-6.16h1.058v6.16H57.289z"/>
		<path class="st0" d="M59.525,11.738v-0.99h1.058v0.99H59.525z M60.583,16.993h-1.058v-4.437h1.058V16.993z"/>
		<path class="st0" d="M63.154,13.41v3.584h-1.058V13.41h-0.614v-0.853h0.606v-0.546c0-0.956,0.384-1.263,1.254-1.263h0.7v0.853
			h-0.29c-0.444,0-0.597,0.137-0.597,0.478v0.478h0.896v0.853C64.049,13.41,63.154,13.41,63.154,13.41z"/>
		<path class="st0" d="M66.38,12.471c1.203,0,1.928,0.895,1.928,2.304c0,1.407-0.725,2.304-1.928,2.304
			c-1.203,0-1.928-0.896-1.928-2.304C64.452,13.367,65.177,12.471,66.38,12.471z M66.38,13.325c-0.589,0-0.87,0.461-0.87,1.451
			s0.282,1.451,0.87,1.451c0.588,0,0.87-0.461,0.87-1.451S66.968,13.325,66.38,13.325z"/>
		<path class="st0" d="M69.087,16.993v-4.437h0.973v0.759h0.017c0.256-0.529,0.614-0.827,1.246-0.845v1.118
			c-0.051-0.008-0.111-0.008-0.188-0.008c-0.529,0-0.99,0.605-0.99,0.716v2.696H69.087z"/>
		<path class="st0" d="M71.997,16.993v-4.437h0.973v0.478c0.393-0.274,0.845-0.563,1.365-0.563c0.887,0,1.314,0.58,1.314,1.485
			v3.037h-1.058V14.11c0-0.598-0.188-0.785-0.546-0.785c-0.461,0-0.81,0.265-0.99,0.47v3.199
			C73.055,16.993,71.997,16.993,71.997,16.993z"/>
		<path class="st0" d="M76.778,11.738v-0.99h1.058v0.99H76.778z M77.836,16.993h-1.058v-4.437h1.058V16.993z"/>
		<path class="st0" d="M81.276,16.993l-0.069-0.384c-0.427,0.29-0.827,0.47-1.382,0.47c-0.802,0-1.203-0.572-1.203-1.178
			c0-1.007,0.819-1.536,2.543-1.74v-0.376c0-0.341-0.273-0.529-0.649-0.529c-0.495,0-0.768,0.265-0.972,0.546l-0.683-0.521
			c0.273-0.47,1.007-0.828,1.655-0.811c1.195,0.026,1.707,0.461,1.707,1.792v2.09c0,0.222,0.017,0.444,0.085,0.64H81.276z
			 M81.165,14.869c-0.708,0.136-1.485,0.281-1.485,0.904c0,0.333,0.213,0.52,0.512,0.52c0.333,0,0.751-0.281,0.973-0.47V14.869z"/>
		<path class="st0" d="M88.676,12.471c-0.179-0.478-0.546-0.802-1.1-0.802c-0.512,0-0.879,0.205-0.879,0.683
			c0,1.058,3.173,0.836,3.173,2.833c0,1.263-0.793,1.894-2.158,1.894c-1.007,0-1.953-0.563-2.304-1.459l0.973-0.427
			c0.281,0.58,0.649,0.964,1.339,0.964c0.589,0,1.041-0.222,1.041-0.819c0-1.211-3.174-0.973-3.174-2.867
			c0-1.1,0.921-1.723,1.988-1.723c0.989,0,1.808,0.495,2.175,1.391L88.676,12.471z"/>
		<path class="st0" d="M90.914,12.557v-1.468h1.058v1.468h0.87v0.853h-0.87v2.509c0,0.238,0.119,0.307,0.383,0.307
			c0.163,0,0.333-0.051,0.486-0.085v0.87c-0.29,0.034-0.546,0.068-0.836,0.068c-0.785,0-1.092-0.393-1.092-1.024V13.41h-0.615
			v-0.853H90.914z"/>
		<path class="st0" d="M96.009,16.993l-0.069-0.384c-0.427,0.29-0.827,0.47-1.382,0.47c-0.802,0-1.203-0.572-1.203-1.178
			c0-1.007,0.819-1.536,2.543-1.74v-0.376c0-0.341-0.273-0.529-0.649-0.529c-0.495,0-0.768,0.265-0.973,0.546l-0.682-0.521
			c0.273-0.47,1.007-0.828,1.655-0.811c1.195,0.026,1.707,0.461,1.707,1.792v2.09c0,0.222,0.017,0.444,0.085,0.64H96.009z
			 M95.898,14.869c-0.708,0.136-1.485,0.281-1.485,0.904c0,0.333,0.213,0.52,0.512,0.52c0.333,0,0.751-0.281,0.973-0.47V14.869z"/>
		<path class="st0" d="M98.178,12.557v-1.468h1.057v1.468h0.87v0.853h-0.87v2.509c0,0.238,0.119,0.307,0.384,0.307
			c0.162,0,0.333-0.051,0.486-0.085v0.87c-0.29,0.034-0.546,0.068-0.836,0.068c-0.785,0-1.092-0.393-1.092-1.024V13.41h-0.615
			v-0.853H98.178z"/>
		<path class="st0" d="M101.592,14.946c0.017,0.922,0.427,1.28,0.921,1.28s0.725-0.222,0.99-0.529l0.768,0.478
			c-0.41,0.631-1.007,0.904-1.86,0.904c-1.152,0-1.877-0.896-1.877-2.304c0-1.408,0.725-2.304,1.928-2.304
			c1.161-0.008,1.809,0.973,1.809,2.039v0.435C104.271,14.946,101.592,14.946,101.592,14.946z M103.298,14.229
			c-0.017-0.614-0.341-0.973-0.853-0.973c-0.512,0-0.836,0.359-0.853,0.973H103.298z"/>
		<path class="st0" d="M111.228,10.833h1.177v3.857c0,1.8-1.109,2.389-2.363,2.389c-1.255,0-2.363-0.589-2.363-2.389v-3.857h1.177
			v3.908c0,0.998,0.393,1.348,1.187,1.348c0.793,0,1.186-0.349,1.186-1.348V10.833z"/>
		<path class="st0" d="M113.594,16.993v-4.437h0.973v0.478c0.392-0.274,0.845-0.563,1.365-0.563c0.887,0,1.314,0.58,1.314,1.485
			v3.037h-1.057V14.11c0-0.598-0.188-0.785-0.546-0.785c-0.461,0-0.811,0.265-0.99,0.47v3.199
			C114.652,16.993,113.594,16.993,113.594,16.993z"/>
		<path class="st0" d="M118.375,11.738v-0.99h1.058v0.99H118.375z M119.433,16.993h-1.058v-4.437h1.058V16.993z"/>
		<path class="st0" d="M120.308,12.557h1.058l0.734,3.003h0.017l0.751-3.003h1.058l-1.271,4.437h-1.109L120.308,12.557z"/>
		<path class="st0" d="M125.416,14.946c0.017,0.922,0.427,1.28,0.921,1.28s0.725-0.222,0.99-0.529l0.768,0.478
			c-0.41,0.631-1.007,0.904-1.86,0.904c-1.152,0-1.877-0.896-1.877-2.304c0-1.408,0.725-2.304,1.928-2.304
			c1.161-0.008,1.809,0.973,1.809,2.039v0.435C128.095,14.946,125.416,14.946,125.416,14.946z M127.123,14.229
			c-0.017-0.614-0.341-0.973-0.853-0.973c-0.512,0-0.836,0.359-0.853,0.973H127.123z"/>
		<path class="st0" d="M129.102,16.993v-4.437h0.973v0.759h0.017c0.256-0.529,0.615-0.827,1.246-0.845v1.118
			c-0.051-0.008-0.11-0.008-0.188-0.008c-0.529,0-0.989,0.605-0.989,0.716v2.696H129.102z"/>
		<path class="st0" d="M134.274,13.726c-0.213-0.23-0.495-0.469-0.827-0.469c-0.41,0-0.597,0.17-0.597,0.435
			c0,0.759,2.218,0.436,2.218,2.056c0,0.921-0.7,1.331-1.629,1.331c-0.709,0-1.289-0.316-1.681-0.896l0.708-0.529
			c0.247,0.341,0.58,0.64,1.032,0.64c0.375,0,0.631-0.205,0.631-0.504c0-0.759-2.218-0.486-2.218-2.031
			c0-0.828,0.7-1.288,1.468-1.288c0.588,0,1.177,0.222,1.561,0.674L134.274,13.726z"/>
		<path class="st0" d="M135.939,11.738v-0.99h1.058v0.99H135.939z M136.997,16.993h-1.058v-4.437h1.058V16.993z"/>
		<path class="st0" d="M138.496,12.557v-1.468h1.057v1.468h0.87v0.853h-0.87v2.509c0,0.238,0.12,0.307,0.384,0.307
			c0.162,0,0.333-0.051,0.486-0.085v0.87c-0.29,0.034-0.546,0.068-0.836,0.068c-0.785,0-1.092-0.393-1.092-1.024V13.41h-0.615
			v-0.853H138.496z"/>
		<path class="st0" d="M141.079,17.71c0.162,0.034,0.29,0.034,0.443,0.034c0.367,0,0.572-0.103,0.7-0.35
			c0.102-0.213,0.17-0.341,0.17-0.52c0-0.162-0.085-0.349-0.136-0.529l-1.186-3.788h1.066l0.734,2.73h0.017l0.759-2.73h1.058
			l-1.399,4.445c-0.469,1.271-0.845,1.612-1.714,1.612c-0.256,0-0.384-0.017-0.512-0.034V17.71z"/>
		<path class="st0" d="M47.574,31.22v-9.757h2.622l1.878,6.811h0.027l1.892-6.811h2.649v9.757h-1.622v-7.676h-0.027l-2.189,7.676
			h-1.419l-2.162-7.676h-0.027v7.676H47.574z"/>
		<path class="st0" d="M62.13,31.355c-2.662,0-4.095-1.825-4.095-5.014s1.432-5.013,4.095-5.013c2.662,0,4.094,1.824,4.094,5.013
			S64.792,31.355,62.13,31.355z M62.13,22.895c-1.527,0-2.23,1.162-2.23,3.446c-0.027,2.284,0.689,3.446,2.23,3.446
			c1.527,0,2.23-1.162,2.23-3.446C64.36,24.058,63.657,22.895,62.13,22.895z"/>
		<path class="st0" d="M67.888,31.22v-9.757h1.946l3.838,6.649h0.027v-6.649h1.757v9.757h-1.798l-3.986-6.946h-0.027v6.946H67.888z"
			/>
		<path class="st0" d="M83.836,21.449v1.568h-2.554v8.203h-1.865v-8.203h-2.554v-1.568H83.836z"/>
		<path class="st0" d="M85.255,31.22v-9.757h6.46v1.567h-4.595v2.324h3.338v1.568h-3.338v2.729h4.743v1.568H85.255z"/>
		<path class="st0" d="M93.365,31.22v-9.757h3.892c2.216,0,3.108,1.284,3.122,2.892c0.013,1.202-0.595,2.176-1.784,2.513
			l2.149,4.351h-2.068l-1.837-3.973H95.23v3.973H93.365z M95.23,25.733h1.378c1.46,0,1.906-0.459,1.906-1.378
			c0-0.919-0.554-1.378-1.581-1.378H95.23V25.733z"/>
		<path class="st0" d="M102.326,31.22v-9.757h6.46v1.567h-4.595v2.324h3.338v1.568h-3.338v2.729h4.743v1.568H102.326z"/>
		<path class="st0" d="M113.517,25.328l1.676-3.864h1.946l-2.689,5.865v3.892h-1.865v-3.892l-2.689-5.865h1.946L113.517,25.328z"/>
		<path class="st0" d="M121.505,21.463h3.622c1.946,0,3.202,0.649,3.311,2.392c0,1.014-0.419,1.797-1.487,2.216
			c1.271,0.514,1.703,1.095,1.703,2.581c0,1.514-1.068,2.568-3.554,2.568h-3.595V21.463z M123.37,25.355h1.865
			c0.892,0,1.338-0.513,1.338-1.189c0-0.675-0.446-1.189-1.338-1.189h-1.865V25.355z M123.37,29.706h1.865
			c1.082,0,1.555-0.486,1.555-1.419c0-0.933-0.473-1.419-1.555-1.419h-1.865V29.706z"/>
		<path class="st0" d="M132.411,21.449h2.324l2.77,9.771h-1.851l-0.54-2.108h-3.082l-0.581,2.108H129.6L132.411,21.449z
			 M132.438,27.571h2.27l-1.095-4.244h-0.026L132.438,27.571z"/>
		<path class="st0" d="M140.737,25.328l1.676-3.864h1.946l-2.689,5.865v3.892h-1.865v-3.892l-2.689-5.865h1.946L140.737,25.328z"/>
	</g>
	<g>
		<path class="st0" d="M20.62,17.247c-4.709,0-8.526,3.817-8.526,8.526c0,4.711,3.817,8.529,8.526,8.529
			c4.711,0,8.527-3.818,8.527-8.529C29.147,21.064,25.33,17.247,20.62,17.247z M20.658,32.647c-3.82,0-6.915-3.094-6.915-6.915
			c0-3.815,3.095-6.913,6.915-6.913c3.818,0,6.914,3.098,6.914,6.913C27.572,29.553,24.476,32.647,20.658,32.647z"/>
		<path class="st0" d="M1.28,24.625c0,0,0.38,0.474,1.565,0.229c0.565-0.115,0.854,0.021,0.958,0.079
			c0.103,0.061,0.125,0.111,0.116,0.158c-0.015,0.089-0.089,0.258-0.206,0.359c0,0,0.579,0.168,1.094,0.083
			c0.519-0.087,1.12-0.093,1.203-0.11c0.084-0.014,0.234,0.022,0.172,0.178c-0.064,0.15-0.201,0.367-0.201,0.367
			s0.438-0.081,1.247-0.221c0.344-0.061,0.86-0.093,1.35,0.004c0.487,0.103,0.487,0.803,1.194,1.009
			c0.706,0.214,0.683-1.495,0.695-1.962c0.014-0.461,0.163-0.688,0.532-0.973c0.565-0.44,0.428-1.12,0.37-1.596
			c-0.06-0.478,0.873-0.949,1.126-1.507c0.248-0.567,0.043-1.149-0.065-1.378c-0.11-0.229,0.07-0.413,0.2-0.547
			c0.305-0.303,0.781-1.141,0.574-1.441c-0.204-0.3-1.354,0.026-2.552,1.118c-1.202,1.091-2.067,2.367-2.394,2.954
			c-0.04,0.067-0.088-0.079-0.01-0.275c0.077-0.201,0.746-1.865,2.084-3.181c1.34-1.317,2.621-1.798,3.608-1.566
			c0.988,0.228,0.778,1.045,0.61,1.498c-0.166,0.446-0.676,0.766-0.783,1.289c-0.107,0.522,0.046,0.916,0.092,1.409
			c0.045,0.496-0.095,0.829-0.585,1.35c-0.201,0.214-0.63,0.688-0.605,0.924c0.007,0.057,0.156,0.335-0.139,1.159
			c-0.296,0.822-0.964,1.023-0.992,1.253c-0.027,0.238-0.025,1.307-0.685,1.959c-0.66,0.652-1.457,0.424-1.8,0.018
			c-0.347-0.404-0.496-0.924-1.206-0.899c-0.712,0.029-1.15,0.017-1.851,0.164c-0.707,0.149-1.38,0.179-1.642,0.118
			c-0.266-0.063-0.362-0.153-0.362-0.153s0.327-0.044,0.685-0.189c0.273-0.108,0.329-0.208,0.329-0.208s-0.669,0.097-1.45,0.05
			c-0.78-0.05-1.537-0.331-1.996-0.335c0,0,0.18-0.2,0.576-0.281c0.4-0.079,0.431-0.22,0.431-0.22
			c-0.773,0.133-1.61-0.414-1.617-0.471c-0.118-1.077,0.49-3.037,0.49-3.037s-0.039,0.011-0.255,0.168
			c-0.217,0.158-0.483,0.218-0.483,0.218c0.121-0.267,0.219-0.629,0.314-1.11c0.246-1.214,1.195-3.298,1.195-3.298
			s-0.165,0.004-0.375,0.15c-0.21,0.143-0.437,0.158-0.437,0.158s0.032-0.196,0.21-0.592c0.18-0.397,0.461-0.871,0.846-1.335
			c0.387-0.465,0.61-0.867,0.61-0.867s-0.096-0.068-0.372,0c-0.27,0.063-0.511,0.185-0.511,0.185s0.166-0.318,0.761-1.01
			c0.597-0.692,1.421-1.328,1.421-1.328s-0.191,0.09-0.427,0.075c-0.176-0.011-0.382,0.031-0.382,0.031s0.166-0.188,0.887-0.677
			c0.722-0.485,1.511-0.874,1.511-0.874s-0.161-0.025-0.388,0.001c-0.223,0.028-0.455,0.085-0.455,0.085s0.577-0.45,1.916-0.897
			c1.728-0.57,2.385-0.415,2.385-0.415s-0.541,0.06-1.115,0.317c-0.576,0.254-0.753,0.392-0.753,0.392s0.246,0.172,0.262,0.204
			c0.02,0.033,0.059,0.1-0.043,0.131c-0.107,0.031-0.554,0.093-1.131,0.345C6.058,12.12,5.86,12.311,5.86,12.311
			s0.199,0.074,0.239,0.096c0.093,0.049,0.088,0.114-0.005,0.206c-0.042,0.042-0.297,0.253-0.941,0.767
			c-0.641,0.522-0.868,0.868-0.868,0.868S4.6,14.26,4.669,14.261c0.063,0.008,0.117,0.035,0.042,0.133
			c-0.073,0.094-0.581,0.603-0.94,1.095c-0.366,0.486-0.617,0.931-0.617,0.931s0.631-0.163,0.521,0.245
			c-0.065,0.243-0.257,0.728-0.909,1.992c-0.649,1.268-0.953,2.078-0.953,2.078s0.59-0.051,0.641-0.039
			c0.048,0.012,0.132,0.082,0.096,0.167c-0.035,0.085-0.54,0.809-0.943,2.209C1.341,24.001,1.28,24.625,1.28,24.625z"/>
		<path class="st0" d="M36.972,27.75c0,0-0.275-0.051-0.432-0.063c-0.157-0.01-0.169,0.289-0.157,0.446
			c0.078,1.007-0.042,2.279-0.065,2.374c-0.025,0.094-0.462-0.17-0.556-0.203c-0.098-0.039-0.168,0.05-0.183,0.154
			c-0.171,1.601-0.935,3.368-0.935,3.368s-0.13-0.253-0.168-0.351c-0.038-0.094-0.134-0.094-0.195-0.036
			c-0.323,0.327-0.635,1.039-0.826,1.713c-0.194,0.677-0.612,1.217-0.612,1.217c-0.074-0.044-0.088-0.443-0.137-0.552
			c-0.047-0.108-0.18-0.061-0.216,0.025c-0.038,0.083-0.251,0.556-0.744,1.567c-0.494,1.016-0.856,1.884-1.563,1.956
			c-0.487,0.05-0.728-1.385-0.728-1.385s-0.18,0.121-0.273,0.351c-0.101,0.228-0.11,0.504-0.11,0.504
			c-0.534-1.492-0.307-2.613-0.281-2.747c0.025-0.131-0.06-0.196-0.146-0.144c-0.084,0.046-0.289,0.22-0.289,0.22
			c-0.049-0.22-0.154-0.531-0.325-0.834c-0.171-0.3-0.628-0.158-0.952-0.131c-0.267,0.019-0.411-0.263-0.195-0.891
			c0.217-0.631,1.054-0.968,1.407-1.173c0.339-0.196,0.06-0.507,0.18-0.895c0.207-0.66,1.182-0.954,1.316-1.182
			c0.103-0.182-0.113-0.564,0.032-1.074c0.144-0.506,1.132-1.137,1.132-1.137c-0.098-0.925,0.008-1.887,0.405-2.433
			c0.396-0.543,1.144-0.063,1.364,1.423c0.31,2.102-0.572,3.518-0.996,4.4c-0.421,0.881-0.589,0.918-0.537,0.966
			c0.05,0.047,0.265,0.022,0.625-0.482c0.36-0.51,1.9-2.586,1.585-4.911c-0.319-2.326-1.562-2.902-2.526-2.397
			c-0.962,0.511-1.117,1.425-0.888,3.125c0,0-0.552,0.438-0.759,0.81c-0.202,0.374-0.104,1.084-0.237,1.181
			c-0.131,0.097-0.589,0.339-0.925,0.811c-0.337,0.47-0.278,1.071-0.517,1.191c-0.241,0.125-1.002,0.45-1.324,1.474
			c-0.324,1.024,0.002,1.847,0.485,1.735c0.48-0.107,1.205-0.158,1.17,0.578c-0.035,0.734-0.093,1.556,0.017,2.172
			c0,0,0.189-0.57,0.348-0.846c0,0,0.51,2.552,1.475,3.518c0,0-0.014-0.353-0.098-0.763c-0.084-0.406,0.035-0.6,0.035-0.6
			s0.109,0.421,0.604,0.393c0.928-0.042,1.948-2.17,1.948-2.17c-0.044,0.506,0.099,0.711,0.099,0.711
			c0.879-0.966,1.442-2.391,1.67-3.125c0.229-0.732,0.494-1.085,0.494-1.085s0.109,0.074,0.098,0.349
			c-0.014,0.277,0.086,0.554,0.086,0.554c1.09-2.426,1.357-4.295,1.357-4.295s0.128,0.063,0.202,0.338
			c0.073,0.279,0.278,0.518,0.278,0.518c0.637-2.124,0.489-3.398,0.489-3.398s0.109,0.032,0.314,0.19
			c0.204,0.157,0.387,0.447,0.387,0.447c0.059-1.003-0.137-1.724-0.316-2.461c-0.184-0.735-0.413-1.566-0.413-1.566
			c0.357,0.008,0.614,0.277,0.614,0.277c-0.622-2.472-1.271-3.421-1.271-3.421s0.112,0.014,0.265,0.033
			c0.156,0.025,0.374,0.138,0.374,0.138c-0.641-1.452-1.56-2.34-1.56-2.34c0.148-0.086,0.544,0,0.544,0
			c-1.063-1.892-3.323-2.543-3.323-2.543s1.313,0.764,1.959,1.66c0.061,0.087-0.109,0.195-0.252,0.195
			c-0.143,0-0.182,0.12-0.121,0.22c0.061,0.095,0.97,1.045,1.28,1.733c0.063,0.133-0.469,0.014-0.358,0.278
			c0.106,0.264,0.956,1.617,1.196,2.593c0,0-0.734-0.165-0.65,0.072C35.727,24.34,36.369,25.517,36.972,27.75z"/>
		<path class="st0" d="M22.924,2.079c0,0-0.737-0.038-1.745,0.092c-1.006,0.136-1.393,0.265-1.787,0.307
			c-0.391,0.043-0.516,0.036-0.516,0.036s0.237,0.261,0.537,0.274c0.264,0.009,0.485,0.027,0.653,0.09c0,0-0.444,0.072-1.333,0.373
			c-1.109,0.382-1.155,0.451-2.292,0.809c0,0,0.308,0.167,0.579,0.176c0.251,0.003,0.416,0.111,0.416,0.111
			s-0.796,0.167-1.687,0.509c-0.895,0.35-1.088,0.566-1.546,0.583c0,0,0.229,0.132,0.55,0.162c0.213,0.018,0.444,0.065,0.444,0.065
			s-0.357,0.17-1.176,0.622c-0.825,0.455-1.066,0.568-1.573,0.71c0,0,0.325,0.2,0.634,0.227c0.106,0.01,0.201,0.015,0.306,0.026
			c0,0-0.507,0.329-1.324,0.727c-0.817,0.39-0.933,0.478-1.214,0.718c0,0,0.372,0.031,0.594,0.104
			c0.074,0.03,0.145,0.053,0.218,0.08c0,0-0.531,0.257-1.246,0.747c-0.757,0.523-0.975,0.86-0.975,0.86s1.606-0.988,2.983-1.364
			c0.122-0.033,0.198-0.157,0.064-0.297c-0.068-0.071-0.375-0.304-0.375-0.304s0.089-0.058,0.994-0.49
			c0.905-0.433,1.354-0.634,1.474-0.684c0.115-0.056,0.019-0.188-0.063-0.232c-0.082-0.048-0.414-0.22-0.414-0.22
			s0.184-0.1,0.598-0.289c0.723-0.327,1.804-0.693,1.895-0.732c0.088-0.039,0.093-0.129,0.018-0.198
			c-0.08-0.065-0.35-0.27-0.35-0.27s0.277-0.167,0.847-0.313c0.568-0.149,1.077-0.32,1.298-0.413
			c0.187-0.074,0.265-0.183,0.216-0.327c-0.033-0.106-0.17-0.3-0.17-0.3s0.309-0.14,0.708-0.269c0.544-0.17,0.935-0.222,1.428-0.347
			c0.496-0.13,0.573-0.187,0.58-0.287c0.003-0.173-0.109-0.333-0.109-0.333s0.04-0.031,0.646-0.085
			c0.608-0.053,1.118-0.066,1.521-0.053c0.399,0.013,0.627,0.049,0.795,0.003c0.165-0.053,0.231-0.417,0.231-0.417
			s0.466-0.063,1.147,0.108c0.677,0.176,0.981,0.277,1.135,0.326c0.158,0.047,0.266-0.001,0.303-0.15
			c0.038-0.143,0.093-0.301,0.093-0.301s0.462-0.004,1.18,0.31c0.765,0.346,1.145,0.64,1.289,0.738
			c0.109,0.072,0.194-0.026,0.287-0.113c0.091-0.087,0.173-0.199,0.173-0.199s0.057-0.02,0.266,0.03
			c0.205,0.054,0.549,0.238,0.878,0.454c0.325,0.224,0.392,0.392,0.656,0.488c0.113,0.038,0.221-0.167,0.3-0.352
			c0.077-0.19,0.169-0.257,0.169-0.257s0.103,0.014,0.407,0.185c0.309,0.167,0.618,0.386,0.827,0.603
			c0.023,0.025,0.061,0.006,0.071-0.019c0.006-0.027,0.022-0.291-0.16-0.518c-0.308-0.376-0.877-0.872-1.374-1.204
			c-0.496-0.327-0.705-0.448-0.796-0.551c-0.042-0.052-0.066-0.101-0.066-0.101s-0.03,0.199,0.098,0.483
			c0.15,0.324,0.131,0.535,0.131,0.535s-0.537-0.41-1.22-0.702c-0.643-0.273-0.826-0.42-1.111-0.578
			c-0.316-0.171-0.392-0.242-0.392-0.242s0.021,0.335,0.153,0.545c0.135,0.212,0.135,0.315,0.135,0.315s-0.844-0.415-1.965-0.681
			c-1.124-0.254-1.77-0.478-1.77-0.478s0.127,0.379,0.281,0.541c0.153,0.163,0.22,0.261,0.22,0.261s-0.941-0.165-1.876-0.219
			c-0.935-0.05-1.315-0.015-1.467-0.028c-0.05-0.002-0.098-0.006-0.147-0.014c0,0,0.039,0.183,0.375,0.345
			C22.821,1.989,22.924,2.079,22.924,2.079z"/>
		<path class="st0" d="M37.934,5.543c0.325,0.542,0.2,1.551-0.097,1.994c-0.299,0.445-0.779,0.727-1.078,1.068
			c-0.298,0.346-0.562,0.909-0.687,1.334c-0.13,0.425-0.337,0.821-0.699,0.821c-0.346,0-0.662-0.295-0.861-0.722
			c-0.199-0.43-0.245-1.02-0.989-1.414c-0.742-0.387-2.091-0.852-2.091-1.739c0-0.888,0.861-1.168,1.404-1.875
			c0.544-0.708,1.333-1.183,2.084-1.183C35.907,3.827,37.328,4.539,37.934,5.543z"/>
		<path class="st0" d="M40.781,12.359c-0.091-0.233-0.199-0.427-0.199-0.427s0.063-0.137,0.253-0.22
			c0.296-0.126,0.505-0.1,0.516-0.314c0.042-0.98-0.688-1.632-0.688-1.632c0.097-0.056,0.264-0.025,0.492,0.018
			c0.222,0.045,0.243-0.053,0.243-0.053c-0.354-1.05-1.413-1.723-1.413-1.723c0.155-0.09,0.38-0.008,0.56,0.045
			c0.182,0.056,0.337,0,0.337,0c-0.185-0.634-0.651-1.105-1.279-1.423c-0.626-0.317-1.069-0.335-1.125-0.335
			c-0.052,0-0.025,0.071,0.012,0.088c0.059,0.04,0.344,0.187,0.578,0.401c0.311,0.283,0.328,0.392,0.328,0.392
			s0.046,0.152-0.237,0.368c-0.28,0.221-0.544,0.383-0.578,0.437c-0.04,0.053-0.018,0.109,0.042,0.145
			c0.064,0.035,0.418,0.236,0.833,0.578c0.419,0.347,0.546,0.59,0.446,0.636c-0.1,0.045-0.4,0.116-0.334,0.267
			c0.061,0.158,0.316,0.294,0.496,0.457c0.182,0.165,0.41,0.333,0.191,0.916c-0.136,0.363-0.336,0.453-0.514,0.453
			c-0.184,0-0.284-0.017-0.257,0.046c0.03,0.064,0.319,0.617,0.191,0.924c-0.128,0.307-0.261,0.453-0.652,0.407
			c-0.164-0.018-0.218-0.01-0.183,0.054c0.039,0.067,0.354,0.446,0.254,1.014c-0.061,0.349-0.359,0.386-0.584,0.261
			c-0.133-0.326-0.272-0.652-0.426-0.977c-0.053-0.106-0.178-0.153-0.285-0.1c-0.102,0.051-0.151,0.176-0.097,0.282
			c0.041,0.078,0.077,0.158,0.116,0.236c0.098,0.203,0.189,0.406,0.275,0.603c0,0.215-0.011,0.511-0.059,0.713
			c-0.082,0.351-0.318,0.468-0.505,0.069c-0.191-0.4-0.319-0.922-0.328-0.999c-0.009-0.071-0.263,0.049-0.28,0.185
			c-0.019,0.138-0.132,0.781-0.38,0.877c-0.118,0.047-0.234-0.217-0.234-0.534c0-0.318,0.162-0.922-0.237-1.224
			c-0.089-0.068-0.184-0.09-0.304-0.078c-0.116,0.004-0.174,0.09-0.174,0.09c-0.032,0.902-0.264,1.398-0.264,1.398
			s0.397-0.377,0.397-0.158c0,0.217,0.062,0.931,0.287,1.212c0.228,0.283,0.453,0.381,0.656,0.381c0.073,0-0.04-0.236,0.262-0.55
			c0.08-0.09,0.144-0.157,0.17-0.065c0.027,0.092,0.182,0.588,0.696,0.572c0.414-0.015,0.646-0.297,0.767-0.639
			c0.949,2.879,0.862,5.682-0.165,7.556c1.267-1.872,1.446-4.911,0.411-8.028c0.27-0.124,0.781-0.019,1.01-0.474
			c0.007-0.017,0.012-0.032,0.018-0.049c1.285,2.659,1.582,5.38,0.852,7.339c0.984-2.026,0.725-5.052-0.746-7.987
			c-0.025-0.206-0.106-0.329-0.106-0.329s0.316-0.226,0.744-0.253c0.114-0.008,0.187-0.049,0.239-0.108
			c1.705,2.518,2.394,5.245,1.916,7.334C43.471,18.228,42.754,15.145,40.781,12.359z"/>
		<g>
			<path class="st0" d="M28.318,5.283c0.144,0.082,0.214,0.191,0.097,0.404c-0.123,0.214-0.274,0.339-0.575,0.363
				c-0.545,0.042-1.041-0.34-2.092-0.297c-0.603,0.02-1.302,0.133-1.887,0.417c-0.585,0.288-0.708,0.372-0.719,0.387
				c-0.011,0.021-0.016-0.1,0.071-0.186c0.224-0.231,1.263-0.995,2.855-1.263C27.318,4.897,28.037,5.119,28.318,5.283z"/>
			<path class="st0" d="M27.383,6.228c0.03-0.028,0.08-0.021,0.094,0.032c0.015,0.049,0.065,0.293-0.021,0.586
				c-0.086,0.289-0.204,0.524-0.532,0.782c-0.316,0.252-0.936,0.176-1.154-0.286c-0.221-0.463-0.069-1.257,0.451-1.396
				c0.204-0.056,0.264,0.11,0.282,0.235c0.032,0.231-0.093,0.36-0.007,0.539c0.089,0.18,0.348,0.228,0.579,0.014
				c0.227-0.215,0.227-0.283,0.26-0.368C27.368,6.284,27.371,6.241,27.383,6.228z"/>
		</g>
		<path class="st0" d="M35.126,12.144c-0.083-0.097-0.189-0.096-0.197,0.069c-0.021,0.271-0.083,0.474-0.281,0.767
			c-0.197,0.282-0.261,0.072-0.413,0.19C33.823,13.482,34,14.136,34,14.479c0,0.338-0.087,0.665-0.204,0.615
			c-0.251-0.104-0.396-0.547-0.426-0.691c-0.064-0.313-0.262-0.272-0.281-0.194c-0.094,0.375-0.43,1.257-0.654,1.669
			c-0.124,0.233-0.279-0.024-0.355-0.231c0.179-0.49,0.386-0.985,0.625-1.474c0.042-0.087,0.082-0.172,0.127-0.26
			c0.055-0.115,0.008-0.254-0.11-0.313c-0.111-0.053-0.251,0-0.308,0.113c-0.379,0.782-0.685,1.577-0.922,2.362
			c-0.172,0.342-0.392,0.646-0.618,0.91c-0.152,0.172-0.416-0.789-0.822-0.279c-0.126,0.163-0.534,0.707-0.677,0.9
			c-0.021,0.031-0.041,0.043-0.05,0.043c0.344-0.91,0.801-1.827,1.376-2.716c0.05-0.075,0.096-0.153,0.149-0.225
			c0.062-0.099,0.029-0.225-0.063-0.292c-0.103-0.063-0.231-0.032-0.294,0.067c-0.524,0.807-0.952,1.642-1.283,2.469
			c-0.108-0.424-0.493-0.006-0.661,0.215c-0.187,0.246-0.411,0.543-0.473,0.414c-0.009-0.021-0.032-0.125-0.045-0.21
			c-0.027-0.172-0.176-0.243-0.365-0.254c0.307-0.532,0.659-1.057,1.056-1.57c0.048-0.064,0.098-0.129,0.148-0.192
			c0.067-0.081,0.048-0.201-0.035-0.268c-0.083-0.065-0.202-0.05-0.267,0.032c-0.513,0.66-0.945,1.344-1.302,2.03
			c-0.157,0.032-0.305,0.075-0.414,0.11c-0.351,0.12-0.72,0.247-0.72,0.247c0.012-0.145-0.026-0.335-0.191-0.478
			c-0.163-0.149-0.857-0.014-1.112-0.043c-0.261-0.033-0.3-0.106-0.261-0.249c0.11-0.388-0.23-0.568-0.624-0.654
			c-0.394-0.087-0.571-0.186-0.571-0.186c0.136-0.379-0.448-0.642-0.79-0.802c-0.339-0.158-0.744-0.393-0.744-0.393s0,0-0.032-0.306
			c-0.034-0.401-0.512-0.536-0.799-0.77c-0.286-0.231-0.407-0.682-0.407-0.682s0,0.06,0.096,0.479
			c0.092,0.42,0.471,0.609,0.581,0.902c0.109,0.289-0.08,0.522-0.08,0.522c0.258,0.203,0.597,0.378,1.032,0.653
			c0.437,0.275,0.109,0.522,0.109,0.522c0.258,0.218,0.748,0.438,1.209,0.582c0.463,0.146,0.082,0.524,0.082,0.524
			c0.49,0.25,1.113,0.435,1.48,0.465c0.366,0.025,0.094,0.535,0.094,0.535c0.341,0.117,0.599,0.06,1.429-0.143
			c0.095-0.022,0.178-0.037,0.251-0.046c-0.928,2.142-1.102,4.277-0.464,5.843c-0.485-1.619-0.198-3.735,0.803-5.826
			c0.222,0.076,0.198,0.279,0.145,0.395c-0.08,0.174-0.015,0.39,0.123,0.332c0.709-0.304,1.113-0.918,1.291-0.918
			c0.046,0,0.077,0.046,0.097,0.099c-0.762,2.382-0.73,4.676,0.099,6.29c-0.597-1.496-0.594-3.461,0.006-5.514
			c0.442-0.238,0.597-0.579,0.87-0.816c0.271-0.231,0.38-0.117,0.421,0.06c0.052,0.231-0.136,0.625,0.094,0.531
			c0.285-0.122,0.507-0.286,0.683-0.458c-0.416,2.565-0.059,4.916,1.015,6.496c-1.013-1.848-1.188-4.518-0.453-7.335
			c0.04-0.097,0.065-0.171,0.086-0.204c0.077-0.144,0.176,0.037,0.188,0.26c0.015,0.226,0.04,0.371,0.185,0.293
			c0.714-0.368,1.195-1.523,1.238-1.763c0.018-0.099,0.084-0.035,0.178,0.051c0.332,0.303,0.246,0.565,0.32,0.557
			c0.201-0.026,0.413-0.156,0.611-0.479c0.193-0.325,0.156-1.092,0.156-1.325c0-0.233,0.396,0.176,0.396,0.176
			s0.257-0.506,0.302-1.437C35.311,12.554,35.224,12.254,35.126,12.144z"/>
		<g>
			<path class="st0" d="M28.88,17.864c-0.02-0.053-0.051-0.099-0.097-0.099c-0.017,0-0.047,0.028-0.068,0.04
				c0.048,0.049,0.093,0.1,0.141,0.149C28.864,17.924,28.87,17.894,28.88,17.864z"/>
			<path class="st0" d="M24.567,16.737c-0.039,0.143,0,0.215,0.261,0.249c0.157,0.017,0.472-0.021,0.735-0.024
				c-0.325-0.183-0.659-0.354-1.006-0.499C24.588,16.543,24.598,16.629,24.567,16.737z"/>
			<path class="st0" d="M26.33,17.439c-0.074-0.051-0.149-0.101-0.225-0.151c0.024,0.076,0.032,0.154,0.027,0.22
				C26.132,17.507,26.214,17.478,26.33,17.439z"/>
			<path class="st0" d="M28.492,19.453c0.086-0.491,0.205-0.991,0.363-1.498c-0.048-0.049-0.093-0.1-0.141-0.149
				c-0.177,0.087-0.504,0.472-1.013,0.757C27.984,18.841,28.243,19.143,28.492,19.453z"/>
			<path class="st0" d="M29.288,18.427c-0.086,0.078-0.182,0.149-0.303,0.214c-0.111,0.383-0.181,0.757-0.253,1.127
				c1.194,1.62,1.922,3.605,1.964,5.762c0.058-0.039,0.109-0.081,0.173-0.114c0.343-0.181,0.72-0.214,1.08-0.092
				c-0.015-0.433-0.062-0.863-0.124-1.285c-0.474-0.843-0.77-1.867-0.881-3C30.512,20.09,29.951,19.212,29.288,18.427z"/>
			<path class="st0" d="M22.451,15.844c0.018-0.093-0.017-0.215-0.221-0.343c-0.434-0.275-0.774-0.45-1.032-0.653
				c0,0,0.127-0.174,0.1-0.403c-0.213-0.013-0.423-0.032-0.639-0.032c-2.424,0-4.665,0.77-6.507,2.07
				c0.628,0.249,0.589,0.81,0.465,1.227c1.683-1.27,3.772-2.034,6.042-2.034C21.272,15.676,21.869,15.74,22.451,15.844z"/>
			<path class="st0" d="M10.756,27.33c-0.421,0.353-0.88,0.382-1.24,0.246c0.887,5.363,5.531,9.455,11.143,9.455
				c2.044,0,3.956-0.55,5.611-1.498c-0.187-0.282-0.248-0.816-0.074-1.431c-1.588,1.05-3.489,1.664-5.537,1.664
				C15.662,35.766,11.526,32.11,10.756,27.33z"/>
			<path class="st0" d="M8.578,25.752c-0.49-0.097-1.006-0.065-1.35-0.004c-0.81,0.14-1.247,0.221-1.247,0.221
				s0.137-0.217,0.201-0.367c0.063-0.156-0.088-0.192-0.172-0.178c-0.083,0.017-0.685,0.022-1.203,0.11
				c-0.516,0.085-1.094-0.083-1.094-0.083c0.118-0.1,0.191-0.27,0.206-0.359c0.009-0.047-0.013-0.097-0.116-0.158
				c-0.104-0.058-0.393-0.194-0.958-0.079C1.66,25.099,1.28,24.625,1.28,24.625s0.061-0.624,0.328-1.553
				c0.403-1.4,0.907-2.124,0.943-2.209c0.036-0.085-0.048-0.154-0.096-0.167c-0.05-0.013-0.641,0.039-0.641,0.039
				s0.304-0.81,0.953-2.078c0.652-1.264,0.843-1.749,0.909-1.992c0.11-0.407-0.521-0.245-0.521-0.245s0.251-0.445,0.617-0.931
				c0.358-0.492,0.866-1,0.94-1.095c0.075-0.099,0.02-0.125-0.042-0.133C4.6,14.26,4.285,14.247,4.285,14.247
				s0.226-0.346,0.868-0.868c0.644-0.514,0.899-0.725,0.941-0.767c0.093-0.092,0.099-0.157,0.005-0.206
				c-0.041-0.022-0.239-0.096-0.239-0.096s0.199-0.19,0.777-0.447c0.576-0.252,1.024-0.315,1.131-0.345
				c0.102-0.031,0.064-0.098,0.043-0.131c-0.016-0.032-0.262-0.204-0.262-0.204s0.177-0.138,0.753-0.392
				c0.573-0.257,1.115-0.317,1.115-0.317S8.759,10.32,7.031,10.89c-1.339,0.447-1.916,0.897-1.916,0.897s0.231-0.057,0.455-0.085
				c0.226-0.026,0.388-0.001,0.388-0.001s-0.789,0.389-1.511,0.874c-0.721,0.489-0.887,0.677-0.887,0.677s0.205-0.042,0.382-0.031
				c0.236,0.015,0.427-0.075,0.427-0.075s-0.824,0.636-1.421,1.328c-0.595,0.692-0.761,1.01-0.761,1.01s0.241-0.122,0.511-0.185
				c0.276-0.068,0.372,0,0.372,0s-0.223,0.402-0.61,0.867c-0.384,0.464-0.666,0.938-0.846,1.335c-0.178,0.396-0.21,0.592-0.21,0.592
				s0.227-0.015,0.437-0.158c0.209-0.146,0.375-0.15,0.375-0.15s-0.949,2.083-1.196,3.298c-0.095,0.481-0.193,0.843-0.314,1.11
				c0,0,0.266-0.06,0.483-0.218c0.216-0.157,0.255-0.168,0.255-0.168s-0.608,1.96-0.49,3.037c0.007,0.057,0.844,0.604,1.617,0.471
				c0,0-0.031,0.14-0.431,0.22c-0.396,0.081-0.576,0.281-0.576,0.281c0.459,0.004,1.216,0.285,1.996,0.335
				c0.781,0.047,1.45-0.05,1.45-0.05s-0.056,0.1-0.329,0.208c-0.358,0.145-0.685,0.189-0.685,0.189s0.096,0.09,0.362,0.153
				c0.262,0.061,0.935,0.031,1.642-0.118c0.701-0.147,1.14-0.135,1.851-0.164c0.71-0.025,0.859,0.495,1.206,0.899
				c0.112,0.129,0.274,0.239,0.461,0.31c-0.056-0.335-0.097-0.672-0.122-1.018C9.043,26.27,8.955,25.833,8.578,25.752z"/>
			<path class="st0" d="M32.069,24.453c-0.103-0.186-0.191-0.388-0.277-0.592c0.01,0.06,0.023,0.119,0.033,0.178
				C31.903,24.181,31.98,24.324,32.069,24.453z"/>
			<path class="st0" d="M27.39,18.283c-0.006,0.024-0.013,0.049-0.021,0.068c-0.08,0.174-0.015,0.39,0.123,0.332
				c0.078-0.035,0.138-0.081,0.209-0.121C27.601,18.465,27.494,18.377,27.39,18.283z"/>
			<path class="st0" d="M28.979,24.154c-0.486-1.217-0.553-2.751-0.246-4.386c-0.078-0.106-0.158-0.213-0.24-0.315
				C28.179,21.245,28.337,22.904,28.979,24.154z"/>
			<path class="st0" d="M25.941,17.029c-0.063-0.057-0.213-0.067-0.378-0.067c0.185,0.104,0.366,0.211,0.542,0.325
				C26.078,17.197,26.03,17.107,25.941,17.029z"/>
		</g>
		<path class="st0" d="M18.877,25.374c-0.122,0-0.238,0.025-0.344,0.064c-0.395,0.14-0.681,0.514-0.681,0.961
			c0,0.566,0.463,1.024,1.025,1.024c0.23,0,0.438-0.081,0.609-0.207c0.252-0.185,0.413-0.479,0.413-0.817
			C19.899,25.831,19.441,25.374,18.877,25.374z"/>
		<path class="st0" d="M24.868,28.538l-0.178-0.157l-0.062-0.231l-0.093-0.092l0.022-0.05l-0.047-0.026l-0.024-0.078l0.002-0.053
			l-0.784-0.775l-0.175-0.164l-0.974-0.932l-0.51-0.46l-0.431-0.39l-0.55-0.481l-0.14-0.131l-0.187-0.163l-0.222-0.19l-0.106-0.087
			v-2.865h-3.176l-0.027,0.1l-0.016,0.049l0.016,0.04l0.052,0.049l0.017,0.04l0.021,0.089l0.045,0.075h-0.027l0.036,0.082
			l-0.022,0.051L17.3,21.906v0.081l-0.025-0.01l-0.017,0.043l0.042,0.117l-0.175,0.393l-0.043,0.103v0.057l0.028,0.039l0.015,0.04
			l-0.015,0.054l0.01,0.022l0.134,0.126l0.061,0.037l0.019,0.068l0.043,0.039l0.061,0.089l0.024,0.042l0.066,0.061v0.053l0.018,0.05
			l0.016,0.132L17.539,23.6l-0.019,0.063v0.086l0.019,0.064l0.042,0.104l0.041,0.09l-0.029,0.103l0.016,0.033l0.041,0.042
			l0.054,0.057l0.069,0.067l0.012,0.025l0.041,0.015l0.035,0.053l0.066,0.106l0.048,0.031l0.094,0.063l0.041,0.108h0.026
			l0.043,0.033l0.012,0.026c0.031-0.014,0.056-0.035,0.087-0.046c0.186-0.068,0.388-0.111,0.6-0.111
			c0.983,0,1.785,0.797,1.785,1.788c0,0.582-0.275,1.089-0.703,1.412l-0.011,0.057v0.046l-0.008,0.022l0.036,0.067l-0.014,0.046
			l0.014,0.071l-0.028,0.113l0.006,0.05l0.09,0.019l0.049,0.075l0.366,0.008l0.048,0.026l0.17,0.019l0.061-0.019l0.11,0.031
			l0.081,0.086l0.068,0.025l0.055,0.131l0.048,0.042l0.122,0.032l0.015,0.011l0.087,0.015l0.029,0.019l0.185-0.019l0.055,0.032
			l0.068,0.146v0.028l-0.023,0.049l0.097,0.049l0.026-0.043l0.047-0.017l0.063,0.017l0.114,0.101l0.041,0.036l0.043,0.015
			l0.113,0.119l0.074,0.046l0.109,0.117l0.145,0.274l0.018,0.101l-0.018,0.061l0.035,0.083l-0.022,0.021v0.039l0.012,0.013
			l0.029-0.032l0.01-0.004l0.058,0.043l0.007,0.049l-0.056-0.049h-0.013l0.013,0.024l0.029,0.037v0.078l0.768-0.083l1.039-0.099
			l0.112-0.001l0.028-0.029l0.018-0.069l0.037-0.039v-0.118l-0.044-0.046l-0.096-0.007l-0.031-0.026l-0.009-0.047l0.013-0.131
			l-0.036-0.039l0.017-0.05l-0.005-0.046l0.027-0.024l0.065-0.067l-0.015-0.025l0.044-0.013l0.031-0.085l-0.013-0.064l0.02-0.029
			l-0.018-0.186l0.066-0.064l-0.004-0.022l0.027-0.061l0.18-0.154l0.045-0.018L24.868,28.538z"/>
	</g>
</g>
</svg>
